<mxfile host="app.diagrams.net" modified="2023-05-20T15:43:31.401Z" agent="Mozilla/5.0 (Windows NT 10.0; Win64; x64) AppleWebKit/537.36 (KHTML, like Gecko) Chrome/113.0.0.0 Safari/537.36" etag="FiR0uSZiv4sbpFScaFTC" version="21.3.2" type="github">
  <diagram id="C5RBs43oDa-KdzZeNtuy" name="Page-1">
    <mxGraphModel dx="1195" dy="637" grid="0" gridSize="10" guides="1" tooltips="1" connect="1" arrows="1" fold="1" page="1" pageScale="1" pageWidth="827" pageHeight="1169" math="0" shadow="0">
      <root>
        <mxCell id="WIyWlLk6GJQsqaUBKTNV-0" />
        <mxCell id="WIyWlLk6GJQsqaUBKTNV-1" parent="WIyWlLk6GJQsqaUBKTNV-0" />
        <mxCell id="G-Czn8x9Ac623vH-5RZ5-0" value="Content" style="rounded=0;whiteSpace=wrap;html=1;fillColor=#fff2cc;strokeColor=#d6b656;" vertex="1" parent="WIyWlLk6GJQsqaUBKTNV-1">
          <mxGeometry x="120" y="820" width="130" height="20" as="geometry" />
        </mxCell>
        <mxCell id="G-Czn8x9Ac623vH-5RZ5-1" value="[CLS]" style="rounded=0;whiteSpace=wrap;html=1;fillColor=#fff2cc;strokeColor=#d6b656;" vertex="1" parent="WIyWlLk6GJQsqaUBKTNV-1">
          <mxGeometry x="90" y="820" width="30" height="20" as="geometry" />
        </mxCell>
        <mxCell id="G-Czn8x9Ac623vH-5RZ5-2" value="[PAD]" style="rounded=0;whiteSpace=wrap;html=1;fillColor=#fff2cc;strokeColor=#d6b656;" vertex="1" parent="WIyWlLk6GJQsqaUBKTNV-1">
          <mxGeometry x="280" y="820" width="30" height="20" as="geometry" />
        </mxCell>
        <mxCell id="G-Czn8x9Ac623vH-5RZ5-3" value="[SEP]" style="rounded=0;whiteSpace=wrap;html=1;fillColor=#fff2cc;strokeColor=#d6b656;" vertex="1" parent="WIyWlLk6GJQsqaUBKTNV-1">
          <mxGeometry x="250" y="820" width="30" height="20" as="geometry" />
        </mxCell>
        <mxCell id="G-Czn8x9Ac623vH-5RZ5-4" value="[CLS]" style="rounded=0;whiteSpace=wrap;html=1;fillColor=#fff2cc;strokeColor=#d6b656;" vertex="1" parent="WIyWlLk6GJQsqaUBKTNV-1">
          <mxGeometry x="90" y="740" width="30" height="20" as="geometry" />
        </mxCell>
        <mxCell id="G-Czn8x9Ac623vH-5RZ5-5" value="FinBert(shared)" style="rounded=0;whiteSpace=wrap;html=1;fillColor=#dae8fc;strokeColor=#6c8ebf;" vertex="1" parent="WIyWlLk6GJQsqaUBKTNV-1">
          <mxGeometry x="90" y="780" width="220" height="20" as="geometry" />
        </mxCell>
        <mxCell id="G-Czn8x9Ac623vH-5RZ5-7" value="--" style="rounded=0;whiteSpace=wrap;html=1;" vertex="1" parent="WIyWlLk6GJQsqaUBKTNV-1">
          <mxGeometry x="120" y="740" width="130" height="20" as="geometry" />
        </mxCell>
        <mxCell id="G-Czn8x9Ac623vH-5RZ5-8" value="--" style="rounded=0;whiteSpace=wrap;html=1;" vertex="1" parent="WIyWlLk6GJQsqaUBKTNV-1">
          <mxGeometry x="280" y="740" width="30" height="20" as="geometry" />
        </mxCell>
        <mxCell id="G-Czn8x9Ac623vH-5RZ5-9" value="--" style="rounded=0;whiteSpace=wrap;html=1;" vertex="1" parent="WIyWlLk6GJQsqaUBKTNV-1">
          <mxGeometry x="250" y="740" width="30" height="20" as="geometry" />
        </mxCell>
        <mxCell id="G-Czn8x9Ac623vH-5RZ5-10" value="Sigmoid" style="rounded=0;whiteSpace=wrap;html=1;fillColor=#dae8fc;strokeColor=#6c8ebf;" vertex="1" parent="WIyWlLk6GJQsqaUBKTNV-1">
          <mxGeometry x="90" y="700" width="220" height="20" as="geometry" />
        </mxCell>
        <mxCell id="G-Czn8x9Ac623vH-5RZ5-11" value="&lt;p style=&quot;line-height: 0%;&quot;&gt;&lt;font style=&quot;font-size: 12px;&quot;&gt;Score:[S&lt;sub style=&quot;font-size: 11px;&quot;&gt;0&lt;/sub&gt;,...,S&lt;sub style=&quot;font-size: 11px;&quot;&gt;m-1&lt;/sub&gt;&lt;span style=&quot;font-size: 11px;&quot;&gt;]&lt;br style=&quot;font-size: 11px;&quot;&gt;&lt;/span&gt;&lt;br&gt;&lt;/font&gt;&lt;/p&gt;" style="rounded=0;whiteSpace=wrap;html=1;fillColor=#fff2cc;strokeColor=#d6b656;" vertex="1" parent="WIyWlLk6GJQsqaUBKTNV-1">
          <mxGeometry x="90" y="640" width="220" height="20" as="geometry" />
        </mxCell>
        <mxCell id="G-Czn8x9Ac623vH-5RZ5-107" style="edgeStyle=orthogonalEdgeStyle;rounded=0;orthogonalLoop=1;jettySize=auto;html=1;entryX=-0.008;entryY=0.582;entryDx=0;entryDy=0;entryPerimeter=0;" edge="1" parent="WIyWlLk6GJQsqaUBKTNV-1" source="G-Czn8x9Ac623vH-5RZ5-12" target="G-Czn8x9Ac623vH-5RZ5-34">
          <mxGeometry relative="1" as="geometry">
            <Array as="points">
              <mxPoint x="320" y="530" />
              <mxPoint x="320" y="832" />
            </Array>
          </mxGeometry>
        </mxCell>
        <mxCell id="G-Czn8x9Ac623vH-5RZ5-12" value="&lt;p style=&quot;line-height: 0%;&quot;&gt;Output:[Type&lt;sub&gt;i&lt;/sub&gt;]&lt;/p&gt;" style="rounded=0;whiteSpace=wrap;html=1;fillColor=#fff2cc;strokeColor=#d6b656;" vertex="1" parent="WIyWlLk6GJQsqaUBKTNV-1">
          <mxGeometry x="90" y="520" width="220" height="20" as="geometry" />
        </mxCell>
        <mxCell id="G-Czn8x9Ac623vH-5RZ5-16" value="" style="endArrow=classic;html=1;rounded=0;endWidth=15.172413793103448;strokeWidth=1;shadow=0;strokeColor=#d79b00;fillColor=#ffe6cc;" edge="1" parent="WIyWlLk6GJQsqaUBKTNV-1">
          <mxGeometry width="50" height="50" relative="1" as="geometry">
            <mxPoint x="199.71" y="820" as="sourcePoint" />
            <mxPoint x="199.71" y="800" as="targetPoint" />
            <Array as="points">
              <mxPoint x="199.71" y="800" />
            </Array>
          </mxGeometry>
        </mxCell>
        <mxCell id="G-Czn8x9Ac623vH-5RZ5-17" value="" style="endArrow=classic;html=1;rounded=0;endWidth=15.172413793103448;strokeWidth=1;shadow=0;strokeColor=#d79b00;fillColor=#ffe6cc;" edge="1" parent="WIyWlLk6GJQsqaUBKTNV-1">
          <mxGeometry width="50" height="50" relative="1" as="geometry">
            <mxPoint x="199.71" y="780" as="sourcePoint" />
            <mxPoint x="199.71" y="760" as="targetPoint" />
            <Array as="points">
              <mxPoint x="199.71" y="760" />
            </Array>
          </mxGeometry>
        </mxCell>
        <mxCell id="G-Czn8x9Ac623vH-5RZ5-18" value="" style="endArrow=classic;html=1;rounded=0;endWidth=15.172413793103448;strokeWidth=1;shadow=0;strokeColor=#d79b00;fillColor=#ffe6cc;" edge="1" parent="WIyWlLk6GJQsqaUBKTNV-1">
          <mxGeometry width="50" height="50" relative="1" as="geometry">
            <mxPoint x="199.71" y="740" as="sourcePoint" />
            <mxPoint x="199.71" y="720" as="targetPoint" />
            <Array as="points">
              <mxPoint x="199.71" y="720" />
            </Array>
          </mxGeometry>
        </mxCell>
        <mxCell id="G-Czn8x9Ac623vH-5RZ5-19" value="" style="endArrow=classic;html=1;rounded=0;endWidth=15.172413793103448;strokeWidth=1;shadow=0;strokeColor=#d79b00;fillColor=#ffe6cc;" edge="1" parent="WIyWlLk6GJQsqaUBKTNV-1">
          <mxGeometry width="50" height="50" relative="1" as="geometry">
            <mxPoint x="199.66" y="690" as="sourcePoint" />
            <mxPoint x="199.66" y="670" as="targetPoint" />
            <Array as="points">
              <mxPoint x="199.66" y="670" />
            </Array>
          </mxGeometry>
        </mxCell>
        <mxCell id="G-Czn8x9Ac623vH-5RZ5-20" value="" style="endArrow=classic;html=1;rounded=0;endWidth=15.172413793103448;strokeWidth=1;shadow=0;strokeColor=#d79b00;fillColor=#ffe6cc;" edge="1" parent="WIyWlLk6GJQsqaUBKTNV-1">
          <mxGeometry width="50" height="50" relative="1" as="geometry">
            <mxPoint x="199.71" y="640" as="sourcePoint" />
            <mxPoint x="199.71" y="620" as="targetPoint" />
            <Array as="points">
              <mxPoint x="199.71" y="620" />
            </Array>
          </mxGeometry>
        </mxCell>
        <mxCell id="G-Czn8x9Ac623vH-5RZ5-21" value="" style="endArrow=classic;html=1;rounded=0;endWidth=15.172413793103448;strokeWidth=1;shadow=0;strokeColor=#d79b00;fillColor=#ffe6cc;" edge="1" parent="WIyWlLk6GJQsqaUBKTNV-1">
          <mxGeometry width="50" height="50" relative="1" as="geometry">
            <mxPoint x="199.66000000000003" y="570" as="sourcePoint" />
            <mxPoint x="199.66000000000003" y="550" as="targetPoint" />
            <Array as="points">
              <mxPoint x="199.66000000000003" y="550" />
            </Array>
          </mxGeometry>
        </mxCell>
        <mxCell id="G-Czn8x9Ac623vH-5RZ5-22" value="Type&lt;sub&gt;0&lt;/sub&gt;" style="rounded=0;whiteSpace=wrap;html=1;fillColor=#fff2cc;strokeColor=#d6b656;" vertex="1" parent="WIyWlLk6GJQsqaUBKTNV-1">
          <mxGeometry x="90" y="580" width="60" height="20" as="geometry" />
        </mxCell>
        <mxCell id="G-Czn8x9Ac623vH-5RZ5-23" value="Type&lt;span style=&quot;font-size: 10px;&quot;&gt;&lt;sub&gt;i&lt;/sub&gt;&lt;/span&gt;" style="rounded=0;whiteSpace=wrap;html=1;fillColor=#fff2cc;strokeColor=#d6b656;" vertex="1" parent="WIyWlLk6GJQsqaUBKTNV-1">
          <mxGeometry x="170" y="580" width="60" height="20" as="geometry" />
        </mxCell>
        <mxCell id="G-Czn8x9Ac623vH-5RZ5-24" value="0.2" style="rounded=0;whiteSpace=wrap;html=1;fillColor=#fff2cc;strokeColor=#d6b656;" vertex="1" parent="WIyWlLk6GJQsqaUBKTNV-1">
          <mxGeometry x="90" y="600" width="60" height="20" as="geometry" />
        </mxCell>
        <mxCell id="G-Czn8x9Ac623vH-5RZ5-25" value="0.7&amp;gt;0.5" style="rounded=0;whiteSpace=wrap;html=1;fillColor=#fff2cc;strokeColor=#d6b656;" vertex="1" parent="WIyWlLk6GJQsqaUBKTNV-1">
          <mxGeometry x="170" y="600" width="60" height="20" as="geometry" />
        </mxCell>
        <mxCell id="G-Czn8x9Ac623vH-5RZ5-26" value="0.1" style="rounded=0;whiteSpace=wrap;html=1;fillColor=#fff2cc;strokeColor=#d6b656;" vertex="1" parent="WIyWlLk6GJQsqaUBKTNV-1">
          <mxGeometry x="250" y="600" width="60" height="20" as="geometry" />
        </mxCell>
        <mxCell id="G-Czn8x9Ac623vH-5RZ5-27" value="&lt;p style=&quot;line-height: 0%;&quot;&gt;Type&lt;sub&gt;m-1&lt;/sub&gt;&lt;/p&gt;" style="rounded=0;whiteSpace=wrap;html=1;fillColor=#fff2cc;strokeColor=#d6b656;" vertex="1" parent="WIyWlLk6GJQsqaUBKTNV-1">
          <mxGeometry x="250" y="580" width="60" height="20" as="geometry" />
        </mxCell>
        <mxCell id="G-Czn8x9Ac623vH-5RZ5-33" value="Type&lt;sub&gt;i&lt;/sub&gt;" style="rounded=0;whiteSpace=wrap;html=1;fillColor=#fff2cc;strokeColor=#d6b656;" vertex="1" parent="WIyWlLk6GJQsqaUBKTNV-1">
          <mxGeometry x="360" y="820" width="40" height="20" as="geometry" />
        </mxCell>
        <mxCell id="G-Czn8x9Ac623vH-5RZ5-34" value="[CLS]" style="rounded=0;whiteSpace=wrap;html=1;fillColor=#fff2cc;strokeColor=#d6b656;" vertex="1" parent="WIyWlLk6GJQsqaUBKTNV-1">
          <mxGeometry x="330" y="820" width="30" height="20" as="geometry" />
        </mxCell>
        <mxCell id="G-Czn8x9Ac623vH-5RZ5-35" value="[PAD]" style="rounded=0;whiteSpace=wrap;html=1;fillColor=#fff2cc;strokeColor=#d6b656;" vertex="1" parent="WIyWlLk6GJQsqaUBKTNV-1">
          <mxGeometry x="520" y="820" width="30" height="20" as="geometry" />
        </mxCell>
        <mxCell id="G-Czn8x9Ac623vH-5RZ5-36" value="[SEP]" style="rounded=0;whiteSpace=wrap;html=1;fillColor=#fff2cc;strokeColor=#d6b656;" vertex="1" parent="WIyWlLk6GJQsqaUBKTNV-1">
          <mxGeometry x="400" y="820" width="30" height="20" as="geometry" />
        </mxCell>
        <mxCell id="G-Czn8x9Ac623vH-5RZ5-38" value="FinBert(shared)" style="rounded=0;whiteSpace=wrap;html=1;fillColor=#dae8fc;strokeColor=#6c8ebf;" vertex="1" parent="WIyWlLk6GJQsqaUBKTNV-1">
          <mxGeometry x="330" y="780" width="220" height="20" as="geometry" />
        </mxCell>
        <mxCell id="G-Czn8x9Ac623vH-5RZ5-42" value="Sigmoid" style="rounded=0;whiteSpace=wrap;html=1;fillColor=#dae8fc;strokeColor=#6c8ebf;" vertex="1" parent="WIyWlLk6GJQsqaUBKTNV-1">
          <mxGeometry x="330" y="700" width="220" height="20" as="geometry" />
        </mxCell>
        <mxCell id="G-Czn8x9Ac623vH-5RZ5-43" value="&lt;p style=&quot;line-height: 0%;&quot;&gt;&lt;font style=&quot;font-size: 12px;&quot;&gt;Span of Start:[S&lt;sub style=&quot;font-size: 11px;&quot;&gt;0&lt;/sub&gt;,...,S&lt;sub&gt;n&lt;/sub&gt;&lt;sub style=&quot;font-size: 11px;&quot;&gt;-1&lt;/sub&gt;&lt;span style=&quot;font-size: 11px;&quot;&gt;]&lt;br style=&quot;font-size: 11px;&quot;&gt;&lt;/span&gt;&lt;br&gt;&lt;/font&gt;&lt;/p&gt;" style="rounded=0;whiteSpace=wrap;html=1;fillColor=#fff2cc;strokeColor=#d6b656;" vertex="1" parent="WIyWlLk6GJQsqaUBKTNV-1">
          <mxGeometry x="330" y="640" width="220" height="20" as="geometry" />
        </mxCell>
        <mxCell id="G-Czn8x9Ac623vH-5RZ5-44" value="&lt;p style=&quot;line-height: 0%;&quot;&gt;Output:[Type&lt;sub&gt;i&lt;/sub&gt;,C&lt;sub&gt;s&lt;/sub&gt;C&lt;sub&gt;e&lt;/sub&gt;]&lt;/p&gt;" style="rounded=0;whiteSpace=wrap;html=1;fillColor=#fff2cc;strokeColor=#d6b656;" vertex="1" parent="WIyWlLk6GJQsqaUBKTNV-1">
          <mxGeometry x="330" y="520" width="220" height="20" as="geometry" />
        </mxCell>
        <mxCell id="G-Czn8x9Ac623vH-5RZ5-50" value="" style="endArrow=classic;html=1;rounded=0;endWidth=15.172413793103448;strokeWidth=1;shadow=0;strokeColor=#d79b00;fillColor=#ffe6cc;" edge="1" parent="WIyWlLk6GJQsqaUBKTNV-1">
          <mxGeometry width="50" height="50" relative="1" as="geometry">
            <mxPoint x="439.8" y="560" as="sourcePoint" />
            <mxPoint x="439.8" y="540" as="targetPoint" />
            <Array as="points">
              <mxPoint x="439.8" y="540" />
            </Array>
          </mxGeometry>
        </mxCell>
        <mxCell id="G-Czn8x9Ac623vH-5RZ5-51" value="C&lt;sub&gt;0&lt;/sub&gt;" style="rounded=0;whiteSpace=wrap;html=1;fillColor=#fff2cc;strokeColor=#d6b656;" vertex="1" parent="WIyWlLk6GJQsqaUBKTNV-1">
          <mxGeometry x="330" y="560" width="30" height="20" as="geometry" />
        </mxCell>
        <mxCell id="G-Czn8x9Ac623vH-5RZ5-52" value="C&lt;sub&gt;s&lt;/sub&gt;" style="rounded=0;whiteSpace=wrap;html=1;fillColor=#fff2cc;strokeColor=#d6b656;" vertex="1" parent="WIyWlLk6GJQsqaUBKTNV-1">
          <mxGeometry x="380" y="560" width="50" height="20" as="geometry" />
        </mxCell>
        <mxCell id="G-Czn8x9Ac623vH-5RZ5-53" value="0.2" style="rounded=0;whiteSpace=wrap;html=1;fillColor=#fff2cc;strokeColor=#d6b656;" vertex="1" parent="WIyWlLk6GJQsqaUBKTNV-1">
          <mxGeometry x="330" y="580" width="30" height="20" as="geometry" />
        </mxCell>
        <mxCell id="G-Czn8x9Ac623vH-5RZ5-54" value="0.7&amp;gt;0.5" style="rounded=0;whiteSpace=wrap;html=1;fillColor=#fff2cc;strokeColor=#d6b656;" vertex="1" parent="WIyWlLk6GJQsqaUBKTNV-1">
          <mxGeometry x="380" y="580" width="50" height="20" as="geometry" />
        </mxCell>
        <mxCell id="G-Czn8x9Ac623vH-5RZ5-55" value="0.4" style="rounded=0;whiteSpace=wrap;html=1;fillColor=#fff2cc;strokeColor=#d6b656;" vertex="1" parent="WIyWlLk6GJQsqaUBKTNV-1">
          <mxGeometry x="520" y="580" width="30" height="20" as="geometry" />
        </mxCell>
        <mxCell id="G-Czn8x9Ac623vH-5RZ5-56" value="&lt;p style=&quot;line-height: 0%;&quot;&gt;C&lt;sub&gt;n-1&lt;/sub&gt;&lt;/p&gt;" style="rounded=0;whiteSpace=wrap;html=1;fillColor=#fff2cc;strokeColor=#d6b656;" vertex="1" parent="WIyWlLk6GJQsqaUBKTNV-1">
          <mxGeometry x="520" y="560" width="30" height="20" as="geometry" />
        </mxCell>
        <mxCell id="G-Czn8x9Ac623vH-5RZ5-60" value="Content" style="rounded=0;whiteSpace=wrap;html=1;fillColor=#fff2cc;strokeColor=#d6b656;" vertex="1" parent="WIyWlLk6GJQsqaUBKTNV-1">
          <mxGeometry x="430" y="820" width="60" height="20" as="geometry" />
        </mxCell>
        <mxCell id="G-Czn8x9Ac623vH-5RZ5-61" value="[SEP]" style="rounded=0;whiteSpace=wrap;html=1;fillColor=#fff2cc;strokeColor=#d6b656;" vertex="1" parent="WIyWlLk6GJQsqaUBKTNV-1">
          <mxGeometry x="490" y="820" width="30" height="20" as="geometry" />
        </mxCell>
        <mxCell id="G-Czn8x9Ac623vH-5RZ5-79" value="···" style="rounded=0;whiteSpace=wrap;html=1;gradientColor=#ffffff;strokeColor=#FFFFFF;fillColor=none;opacity=0;" vertex="1" parent="WIyWlLk6GJQsqaUBKTNV-1">
          <mxGeometry x="150" y="580" width="20" height="20" as="geometry" />
        </mxCell>
        <mxCell id="G-Czn8x9Ac623vH-5RZ5-82" value="···" style="rounded=0;whiteSpace=wrap;html=1;gradientColor=#ffffff;strokeColor=#FFFFFF;fillColor=none;opacity=0;" vertex="1" parent="WIyWlLk6GJQsqaUBKTNV-1">
          <mxGeometry x="150" y="600" width="20" height="20" as="geometry" />
        </mxCell>
        <mxCell id="G-Czn8x9Ac623vH-5RZ5-83" value="···" style="rounded=0;whiteSpace=wrap;html=1;gradientColor=#ffffff;strokeColor=#FFFFFF;fillColor=none;opacity=0;" vertex="1" parent="WIyWlLk6GJQsqaUBKTNV-1">
          <mxGeometry x="230" y="580" width="20" height="20" as="geometry" />
        </mxCell>
        <mxCell id="G-Czn8x9Ac623vH-5RZ5-84" value="···" style="rounded=0;whiteSpace=wrap;html=1;gradientColor=#ffffff;strokeColor=#FFFFFF;fillColor=none;opacity=0;" vertex="1" parent="WIyWlLk6GJQsqaUBKTNV-1">
          <mxGeometry x="230" y="600" width="20" height="20" as="geometry" />
        </mxCell>
        <mxCell id="G-Czn8x9Ac623vH-5RZ5-85" value="&lt;p style=&quot;line-height: 0%;&quot;&gt;&lt;font style=&quot;font-size: 12px;&quot;&gt;Span of End:[S&lt;sub style=&quot;font-size: 11px;&quot;&gt;0&lt;/sub&gt;,...,S&lt;sub&gt;n&lt;/sub&gt;&lt;sub style=&quot;font-size: 11px;&quot;&gt;-1&lt;/sub&gt;&lt;span style=&quot;font-size: 11px;&quot;&gt;]&lt;br style=&quot;font-size: 11px;&quot;&gt;&lt;/span&gt;&lt;br&gt;&lt;/font&gt;&lt;/p&gt;" style="rounded=0;whiteSpace=wrap;html=1;fillColor=#fff2cc;strokeColor=#d6b656;" vertex="1" parent="WIyWlLk6GJQsqaUBKTNV-1">
          <mxGeometry x="330" y="660" width="220" height="20" as="geometry" />
        </mxCell>
        <mxCell id="G-Czn8x9Ac623vH-5RZ5-86" value="0.1" style="rounded=0;whiteSpace=wrap;html=1;fillColor=#fff2cc;strokeColor=#d6b656;" vertex="1" parent="WIyWlLk6GJQsqaUBKTNV-1">
          <mxGeometry x="450" y="580" width="50" height="20" as="geometry" />
        </mxCell>
        <mxCell id="G-Czn8x9Ac623vH-5RZ5-87" value="" style="endArrow=classic;html=1;rounded=0;endWidth=15.172413793103448;strokeWidth=1;shadow=0;strokeColor=#d79b00;fillColor=#ffe6cc;" edge="1" parent="WIyWlLk6GJQsqaUBKTNV-1">
          <mxGeometry width="50" height="50" relative="1" as="geometry">
            <mxPoint x="439.8" y="700" as="sourcePoint" />
            <mxPoint x="439.8" y="680" as="targetPoint" />
            <Array as="points">
              <mxPoint x="439.8" y="680" />
            </Array>
          </mxGeometry>
        </mxCell>
        <mxCell id="G-Czn8x9Ac623vH-5RZ5-88" value="C&lt;sub&gt;e&lt;/sub&gt;" style="rounded=0;whiteSpace=wrap;html=1;fillColor=#fff2cc;strokeColor=#d6b656;" vertex="1" parent="WIyWlLk6GJQsqaUBKTNV-1">
          <mxGeometry x="450" y="560" width="50" height="20" as="geometry" />
        </mxCell>
        <mxCell id="G-Czn8x9Ac623vH-5RZ5-90" value="···" style="rounded=0;whiteSpace=wrap;html=1;gradientColor=#ffffff;strokeColor=#FFFFFF;fillColor=none;opacity=0;" vertex="1" parent="WIyWlLk6GJQsqaUBKTNV-1">
          <mxGeometry x="360" y="560" width="20" height="20" as="geometry" />
        </mxCell>
        <mxCell id="G-Czn8x9Ac623vH-5RZ5-91" value="···" style="rounded=0;whiteSpace=wrap;html=1;gradientColor=#ffffff;strokeColor=#FFFFFF;fillColor=none;opacity=0;" vertex="1" parent="WIyWlLk6GJQsqaUBKTNV-1">
          <mxGeometry x="430" y="560" width="20" height="20" as="geometry" />
        </mxCell>
        <mxCell id="G-Czn8x9Ac623vH-5RZ5-92" value="···" style="rounded=0;whiteSpace=wrap;html=1;gradientColor=#ffffff;strokeColor=#FFFFFF;fillColor=none;opacity=0;" vertex="1" parent="WIyWlLk6GJQsqaUBKTNV-1">
          <mxGeometry x="500" y="560" width="20" height="20" as="geometry" />
        </mxCell>
        <mxCell id="G-Czn8x9Ac623vH-5RZ5-93" value="···" style="rounded=0;whiteSpace=wrap;html=1;gradientColor=#ffffff;strokeColor=#FFFFFF;fillColor=none;opacity=0;" vertex="1" parent="WIyWlLk6GJQsqaUBKTNV-1">
          <mxGeometry x="360" y="580" width="20" height="20" as="geometry" />
        </mxCell>
        <mxCell id="G-Czn8x9Ac623vH-5RZ5-94" value="···" style="rounded=0;whiteSpace=wrap;html=1;gradientColor=#ffffff;strokeColor=#FFFFFF;fillColor=none;opacity=0;" vertex="1" parent="WIyWlLk6GJQsqaUBKTNV-1">
          <mxGeometry x="430" y="580" width="20" height="20" as="geometry" />
        </mxCell>
        <mxCell id="G-Czn8x9Ac623vH-5RZ5-95" value="···" style="rounded=0;whiteSpace=wrap;html=1;gradientColor=#ffffff;strokeColor=#FFFFFF;fillColor=none;opacity=0;" vertex="1" parent="WIyWlLk6GJQsqaUBKTNV-1">
          <mxGeometry x="500" y="580" width="20" height="20" as="geometry" />
        </mxCell>
        <mxCell id="G-Czn8x9Ac623vH-5RZ5-99" value="0.8&amp;gt;0.5" style="rounded=0;whiteSpace=wrap;html=1;fillColor=#fff2cc;strokeColor=#d6b656;" vertex="1" parent="WIyWlLk6GJQsqaUBKTNV-1">
          <mxGeometry x="450" y="600" width="50" height="20" as="geometry" />
        </mxCell>
        <mxCell id="G-Czn8x9Ac623vH-5RZ5-100" value="0.3" style="rounded=0;whiteSpace=wrap;html=1;fillColor=#fff2cc;strokeColor=#d6b656;" vertex="1" parent="WIyWlLk6GJQsqaUBKTNV-1">
          <mxGeometry x="330" y="600" width="30" height="20" as="geometry" />
        </mxCell>
        <mxCell id="G-Czn8x9Ac623vH-5RZ5-101" value="0.2" style="rounded=0;whiteSpace=wrap;html=1;fillColor=#fff2cc;strokeColor=#d6b656;" vertex="1" parent="WIyWlLk6GJQsqaUBKTNV-1">
          <mxGeometry x="380" y="600" width="50" height="20" as="geometry" />
        </mxCell>
        <mxCell id="G-Czn8x9Ac623vH-5RZ5-102" value="0.2" style="rounded=0;whiteSpace=wrap;html=1;fillColor=#fff2cc;strokeColor=#d6b656;" vertex="1" parent="WIyWlLk6GJQsqaUBKTNV-1">
          <mxGeometry x="520" y="600" width="30" height="20" as="geometry" />
        </mxCell>
        <mxCell id="G-Czn8x9Ac623vH-5RZ5-103" value="···" style="rounded=0;whiteSpace=wrap;html=1;gradientColor=#ffffff;strokeColor=#FFFFFF;fillColor=none;opacity=0;" vertex="1" parent="WIyWlLk6GJQsqaUBKTNV-1">
          <mxGeometry x="360" y="600" width="20" height="20" as="geometry" />
        </mxCell>
        <mxCell id="G-Czn8x9Ac623vH-5RZ5-104" value="···" style="rounded=0;whiteSpace=wrap;html=1;gradientColor=#ffffff;strokeColor=#FFFFFF;fillColor=none;opacity=0;" vertex="1" parent="WIyWlLk6GJQsqaUBKTNV-1">
          <mxGeometry x="430" y="600" width="20" height="20" as="geometry" />
        </mxCell>
        <mxCell id="G-Czn8x9Ac623vH-5RZ5-105" value="···" style="rounded=0;whiteSpace=wrap;html=1;gradientColor=#ffffff;strokeColor=#FFFFFF;fillColor=none;opacity=0;" vertex="1" parent="WIyWlLk6GJQsqaUBKTNV-1">
          <mxGeometry x="500" y="600" width="20" height="20" as="geometry" />
        </mxCell>
        <mxCell id="G-Czn8x9Ac623vH-5RZ5-112" value="" style="endArrow=classic;html=1;rounded=0;endWidth=15.172413793103448;strokeWidth=1;shadow=0;strokeColor=#d79b00;fillColor=#ffe6cc;" edge="1" parent="WIyWlLk6GJQsqaUBKTNV-1">
          <mxGeometry width="50" height="50" relative="1" as="geometry">
            <mxPoint x="439.76" y="640" as="sourcePoint" />
            <mxPoint x="439.76" y="620" as="targetPoint" />
            <Array as="points">
              <mxPoint x="439.76" y="620" />
            </Array>
          </mxGeometry>
        </mxCell>
        <mxCell id="G-Czn8x9Ac623vH-5RZ5-113" value="" style="endArrow=classic;html=1;rounded=0;endWidth=15.172413793103448;strokeWidth=1;shadow=0;strokeColor=#d79b00;fillColor=#ffe6cc;" edge="1" parent="WIyWlLk6GJQsqaUBKTNV-1">
          <mxGeometry width="50" height="50" relative="1" as="geometry">
            <mxPoint x="439.76" y="740" as="sourcePoint" />
            <mxPoint x="439.76" y="720" as="targetPoint" />
            <Array as="points">
              <mxPoint x="439.76" y="720" />
            </Array>
          </mxGeometry>
        </mxCell>
        <mxCell id="G-Czn8x9Ac623vH-5RZ5-114" value="--" style="rounded=0;whiteSpace=wrap;html=1;" vertex="1" parent="WIyWlLk6GJQsqaUBKTNV-1">
          <mxGeometry x="360" y="740" width="40" height="20" as="geometry" />
        </mxCell>
        <mxCell id="G-Czn8x9Ac623vH-5RZ5-115" value="--" style="rounded=0;whiteSpace=wrap;html=1;" vertex="1" parent="WIyWlLk6GJQsqaUBKTNV-1">
          <mxGeometry x="330" y="740" width="30" height="20" as="geometry" />
        </mxCell>
        <mxCell id="G-Czn8x9Ac623vH-5RZ5-116" value="--" style="rounded=0;whiteSpace=wrap;html=1;" vertex="1" parent="WIyWlLk6GJQsqaUBKTNV-1">
          <mxGeometry x="520" y="740" width="30" height="20" as="geometry" />
        </mxCell>
        <mxCell id="G-Czn8x9Ac623vH-5RZ5-117" value="--" style="rounded=0;whiteSpace=wrap;html=1;" vertex="1" parent="WIyWlLk6GJQsqaUBKTNV-1">
          <mxGeometry x="400" y="740" width="30" height="20" as="geometry" />
        </mxCell>
        <mxCell id="G-Czn8x9Ac623vH-5RZ5-118" value="&lt;font style=&quot;&quot;&gt;&lt;sub style=&quot;&quot;&gt;&lt;span style=&quot;font-size: 8px;&quot;&gt;S&lt;sub&gt;0&lt;/sub&gt;,...,S&lt;/span&gt;&lt;span style=&quot;font-size: 6.66667px;&quot;&gt;n-1&lt;/span&gt;&lt;/sub&gt;&lt;/font&gt;" style="rounded=0;whiteSpace=wrap;html=1;fillColor=#fff2cc;strokeColor=#d6b656;" vertex="1" parent="WIyWlLk6GJQsqaUBKTNV-1">
          <mxGeometry x="430" y="740" width="60" height="20" as="geometry" />
        </mxCell>
        <mxCell id="G-Czn8x9Ac623vH-5RZ5-119" value="--" style="rounded=0;whiteSpace=wrap;html=1;" vertex="1" parent="WIyWlLk6GJQsqaUBKTNV-1">
          <mxGeometry x="490" y="740" width="30" height="20" as="geometry" />
        </mxCell>
        <mxCell id="G-Czn8x9Ac623vH-5RZ5-120" value="" style="endArrow=classic;html=1;rounded=0;endWidth=15.172413793103448;strokeWidth=1;shadow=0;strokeColor=#d79b00;fillColor=#ffe6cc;" edge="1" parent="WIyWlLk6GJQsqaUBKTNV-1">
          <mxGeometry width="50" height="50" relative="1" as="geometry">
            <mxPoint x="439.83" y="780" as="sourcePoint" />
            <mxPoint x="439.83" y="760" as="targetPoint" />
            <Array as="points">
              <mxPoint x="439.83" y="760" />
            </Array>
          </mxGeometry>
        </mxCell>
        <mxCell id="G-Czn8x9Ac623vH-5RZ5-121" value="" style="endArrow=classic;html=1;rounded=0;endWidth=15.172413793103448;strokeWidth=1;shadow=0;strokeColor=#d79b00;fillColor=#ffe6cc;" edge="1" parent="WIyWlLk6GJQsqaUBKTNV-1">
          <mxGeometry width="50" height="50" relative="1" as="geometry">
            <mxPoint x="439.83" y="820" as="sourcePoint" />
            <mxPoint x="439.83" y="800" as="targetPoint" />
            <Array as="points">
              <mxPoint x="439.83" y="800" />
            </Array>
          </mxGeometry>
        </mxCell>
      </root>
    </mxGraphModel>
  </diagram>
</mxfile>
